<svg width="148" height="26" viewBox="0 0 148 26" fill="none" xmlns="http://www.w3.org/2000/svg">
<path d="M15.2588 24.4433V3.45112C15.2524 3.40914 15.2558 3.36624 15.2687 3.32581C15.2817 3.28537 15.3038 3.2485 15.3333 3.21809C15.3629 3.18769 15.399 3.16457 15.439 3.15057C15.4789 3.13657 15.5216 3.13206 15.5636 3.1374H17.908C17.95 3.13153 17.9926 3.1355 18.0328 3.149C18.0729 3.16249 18.1093 3.18514 18.1393 3.21517C18.1692 3.24519 18.1917 3.28178 18.2052 3.32204C18.2186 3.3623 18.2226 3.40515 18.2167 3.4472V24.4433C18.2226 24.4853 18.2186 24.5282 18.2052 24.5684C18.1917 24.6087 18.1692 24.6453 18.1393 24.6753C18.1093 24.7053 18.0729 24.728 18.0328 24.7415C17.9926 24.755 17.95 24.7589 17.908 24.7531H15.5636C15.5218 24.7591 15.4792 24.7552 15.4392 24.7417C15.3992 24.7282 15.3629 24.7055 15.3333 24.6754C15.3036 24.6452 15.2814 24.6085 15.2685 24.5682C15.2555 24.5279 15.2522 24.4851 15.2588 24.4433Z" fill="#201D24"/>
<path d="M31.9282 3.13748H34.2375C34.2794 3.13161 34.3221 3.13558 34.3622 3.14908C34.4023 3.16257 34.4388 3.18522 34.4687 3.21525C34.4986 3.24528 34.5212 3.28186 34.5346 3.32212C34.5481 3.36238 34.552 3.40523 34.5462 3.44728V24.4434C34.552 24.4854 34.5481 24.5283 34.5346 24.5685C34.5212 24.6088 34.4986 24.6454 34.4687 24.6754C34.4388 24.7054 34.4023 24.7281 34.3622 24.7416C34.3221 24.7551 34.2794 24.759 34.2375 24.7532H31.5921C31.5161 24.7561 31.4412 24.7334 31.3796 24.6886C31.318 24.6438 31.2731 24.5795 31.2522 24.5061L26.0239 10.3885C26.0169 10.3705 26.0032 10.3559 25.9857 10.3479C25.9682 10.3398 25.9483 10.3389 25.9301 10.3453C25.9122 10.3473 25.8957 10.3561 25.884 10.37C25.8724 10.3839 25.8665 10.4017 25.8676 10.4198L25.8989 24.4355C25.9054 24.4774 25.9021 24.5202 25.8892 24.5605C25.8762 24.6008 25.854 24.6375 25.8244 24.6676C25.7947 24.6977 25.7585 24.7205 25.7185 24.734C25.6785 24.7475 25.6359 24.7514 25.5941 24.7453H23.2496C23.2078 24.7514 23.1652 24.7475 23.1252 24.734C23.0852 24.7205 23.049 24.6977 23.0193 24.6676C22.9897 24.6375 22.9675 24.6008 22.9545 24.5605C22.9416 24.5202 22.9383 24.4774 22.9448 24.4355V3.45121C22.9383 3.40885 22.9417 3.36556 22.9549 3.32478C22.968 3.28401 22.9905 3.24689 23.0205 3.21639C23.0505 3.1859 23.0872 3.16288 23.1277 3.14918C23.1681 3.13547 23.2112 3.13147 23.2535 3.13748H25.8676C25.9437 3.13453 26.0185 3.15728 26.0801 3.20207C26.1418 3.24686 26.1866 3.31112 26.2076 3.38454L31.4671 17.5022C31.4671 17.5649 31.5179 17.5924 31.5608 17.5806C31.6038 17.5689 31.6234 17.5336 31.6234 17.4708V3.45121C31.617 3.40922 31.6204 3.36633 31.6333 3.32589C31.6463 3.28546 31.6684 3.24859 31.6979 3.21818C31.7275 3.18777 31.7636 3.16466 31.8036 3.15065C31.8435 3.13665 31.8862 3.13214 31.9282 3.13748Z" fill="#201D24"/>
<path d="M39.2821 24.4433V3.45111C39.2762 3.40905 39.2802 3.36621 39.2936 3.32595C39.3071 3.28568 39.3296 3.2491 39.3595 3.21907C39.3895 3.18905 39.4259 3.1664 39.466 3.1529C39.5062 3.13941 39.5488 3.13544 39.5908 3.1413H44.6353C46.3338 3.1413 47.6871 3.66418 48.6952 4.70993C49.7033 5.75568 50.2061 7.17529 50.2035 8.96876V18.9178C50.2035 20.7086 49.7007 22.1295 48.6952 23.1805C47.6897 24.2315 46.3364 24.7544 44.6353 24.7491H39.5908C39.5492 24.7549 39.5069 24.751 39.4671 24.7377C39.4274 24.7244 39.3911 24.7021 39.3613 24.6725C39.3315 24.643 39.3088 24.6069 39.2951 24.5672C39.2813 24.5274 39.2769 24.485 39.2821 24.4433ZM42.3573 22.1923L44.6041 22.1609C44.9664 22.1705 45.3257 22.0929 45.652 21.9347C45.9783 21.7764 46.2621 21.542 46.4797 21.2511C46.9897 20.5255 47.2491 19.6523 47.2182 18.7648V9.13346C47.2633 8.24234 47.0102 7.36166 46.4992 6.6315C46.2798 6.33379 45.9916 6.09402 45.6595 5.93281C45.3273 5.7716 44.9611 5.69377 44.5923 5.70601H42.3573C42.3409 5.70413 42.3243 5.70599 42.3088 5.71143C42.2932 5.71688 42.2791 5.72577 42.2675 5.73746C42.2558 5.74915 42.247 5.76332 42.2415 5.77892C42.2361 5.79453 42.2343 5.81116 42.2361 5.82758V22.0668C42.2336 22.0835 42.235 22.1006 42.2401 22.1167C42.2452 22.1328 42.254 22.1475 42.2657 22.1597C42.2774 22.1718 42.2918 22.1811 42.3077 22.1867C42.3236 22.1924 42.3405 22.1943 42.3573 22.1923Z" fill="#201D24"/>
<path d="M64.4463 5.70601H57.5223C57.5059 5.70413 57.4893 5.70599 57.4738 5.71143C57.4582 5.71688 57.4441 5.72577 57.4325 5.73746C57.4208 5.74915 57.4119 5.76332 57.4065 5.77892C57.4011 5.79453 57.3992 5.81116 57.4011 5.82758V12.5491C57.3984 12.5657 57.3997 12.5827 57.4048 12.5987C57.41 12.6147 57.4188 12.6292 57.4306 12.6411C57.4425 12.653 57.457 12.6618 57.4729 12.667C57.4888 12.6721 57.5057 12.6734 57.5223 12.6707H61.7697C61.8116 12.6648 61.8543 12.6688 61.8944 12.6823C61.9345 12.6958 61.971 12.7185 62.0009 12.7485C62.0308 12.7785 62.0534 12.8151 62.0668 12.8554C62.0803 12.8956 62.0842 12.9385 62.0784 12.9805V14.9413C62.0842 14.9834 62.0803 15.0262 62.0668 15.0665C62.0534 15.1067 62.0308 15.1433 62.0009 15.1733C61.971 15.2034 61.9345 15.226 61.8944 15.2395C61.8543 15.253 61.8116 15.257 61.7697 15.2511H57.5223C57.5057 15.2484 57.4888 15.2497 57.4729 15.2548C57.457 15.26 57.4425 15.2689 57.4306 15.2807C57.4188 15.2926 57.41 15.3071 57.4048 15.3231C57.3997 15.3391 57.3984 15.3561 57.4011 15.3727V22.0668C57.3986 22.0835 57.4 22.1006 57.4051 22.1167C57.4102 22.1328 57.419 22.1475 57.4307 22.1597C57.4424 22.1718 57.4568 22.1811 57.4727 22.1867C57.4886 22.1924 57.5055 22.1943 57.5223 22.1923H64.4463C64.4879 22.1866 64.5302 22.1905 64.57 22.2038C64.6097 22.217 64.6459 22.2393 64.6758 22.2689C64.7056 22.2985 64.7283 22.3345 64.742 22.3743C64.7558 22.414 64.7602 22.4564 64.755 22.4982V24.459C64.7609 24.501 64.7569 24.5438 64.7435 24.5841C64.73 24.6244 64.7075 24.661 64.6775 24.691C64.6476 24.721 64.6112 24.7437 64.5711 24.7572C64.5309 24.7706 64.4882 24.7746 64.4463 24.7688H54.7557C54.7138 24.7746 54.6711 24.7706 54.631 24.7572C54.5909 24.7437 54.5545 24.721 54.5245 24.691C54.4946 24.661 54.4721 24.6244 54.4586 24.5841C54.4452 24.5438 54.4412 24.501 54.4471 24.459V3.45111C54.4412 3.40905 54.4452 3.36621 54.4586 3.32595C54.4721 3.28568 54.4946 3.2491 54.5245 3.21907C54.5545 3.18905 54.5909 3.1664 54.631 3.1529C54.6711 3.13941 54.7138 3.13544 54.7557 3.1413H64.4463C64.4882 3.13544 64.5309 3.13941 64.5711 3.1529C64.6112 3.1664 64.6476 3.18905 64.6775 3.21907C64.7075 3.2491 64.73 3.28568 64.7435 3.32595C64.7569 3.36621 64.7609 3.40905 64.755 3.45111V5.41189C64.7583 5.45272 64.7524 5.49377 64.7378 5.53203C64.7232 5.57028 64.7003 5.60477 64.6707 5.63298C64.6411 5.66118 64.6056 5.68238 64.5668 5.69501C64.5279 5.70765 64.4868 5.71141 64.4463 5.70601Z" fill="#201D24"/>
<path d="M76.8409 24.5059L74.0119 15.2941C74.0048 15.2676 73.989 15.2442 73.967 15.2278C73.945 15.2114 73.9181 15.203 73.8907 15.2039H71.7338C71.7174 15.2021 71.7009 15.2039 71.6853 15.2094C71.6698 15.2148 71.6557 15.2237 71.644 15.2354C71.6324 15.2471 71.6235 15.2613 71.6181 15.2769C71.6127 15.2925 71.6108 15.3091 71.6127 15.3255V24.4432C71.6185 24.4852 71.6146 24.5281 71.6011 24.5683C71.5877 24.6086 71.5651 24.6452 71.5352 24.6752C71.5053 24.7052 71.4688 24.7279 71.4287 24.7414C71.3886 24.7549 71.3459 24.7588 71.304 24.753H68.9595C68.9176 24.7588 68.8749 24.7549 68.8348 24.7414C68.7946 24.7279 68.7582 24.7052 68.7283 24.6752C68.6984 24.6452 68.6758 24.6086 68.6623 24.5683C68.6489 24.5281 68.6449 24.4852 68.6508 24.4432V3.451C68.6439 3.4079 68.6474 3.36377 68.661 3.32229C68.6745 3.28081 68.6978 3.24318 68.7287 3.2125C68.7596 3.18183 68.7974 3.159 68.8389 3.14592C68.8804 3.13284 68.9244 3.12987 68.9673 3.13728H74.473C75.4529 3.12222 76.4158 3.39483 77.2434 3.92159C78.0581 4.45356 78.7036 5.20893 79.1033 6.09806C79.558 7.10073 79.7836 8.19271 79.7637 9.29414C79.7975 10.4697 79.5283 11.634 78.9822 12.6745C78.4955 13.5858 77.7297 14.3159 76.7979 14.7569C76.7695 14.778 76.7482 14.8074 76.737 14.8411C76.7258 14.8748 76.7253 14.9111 76.7354 14.9451L79.8614 24.4236L79.8927 24.5451C79.8927 24.6902 79.7989 24.7608 79.6152 24.7608H77.2121C77.1306 24.767 77.0494 24.7452 76.9819 24.6988C76.9144 24.6525 76.8647 24.5844 76.8409 24.5059ZM71.6127 5.82747V12.7451C71.6108 12.7615 71.6127 12.7782 71.6181 12.7938C71.6235 12.8094 71.6324 12.8236 71.644 12.8352C71.6557 12.8469 71.6698 12.8558 71.6853 12.8613C71.7009 12.8667 71.7174 12.8686 71.7338 12.8667H74.0119C74.4032 12.8781 74.7915 12.7958 75.1449 12.6267C75.4982 12.4576 75.8063 12.2065 76.0438 11.8941C76.5914 11.1509 76.8674 10.2411 76.8253 9.31767C76.8733 8.37411 76.5974 7.44257 76.0438 6.67845C75.8057 6.36682 75.4974 6.11622 75.1443 5.94718C74.7911 5.77813 74.403 5.69545 74.0119 5.70591H71.7338C71.7174 5.70403 71.7009 5.70588 71.6853 5.71133C71.6698 5.71677 71.6557 5.72567 71.644 5.73735C71.6324 5.74904 71.6235 5.76321 71.6181 5.77882C71.6127 5.79442 71.6108 5.81105 71.6127 5.82747Z" fill="#201D24"/>
<path d="M94.0144 23.1959C92.9724 24.2286 91.5826 24.7436 89.8451 24.741H84.7067C84.6649 24.747 84.6223 24.7431 84.5823 24.7296C84.5423 24.7161 84.5061 24.6934 84.4764 24.6633C84.4468 24.6331 84.4246 24.5964 84.4116 24.5561C84.3987 24.5158 84.3954 24.473 84.4019 24.4312V3.43903C84.3954 3.39719 84.3987 3.3544 84.4116 3.31409C84.4246 3.27378 84.4468 3.23708 84.4764 3.20694C84.5061 3.1768 84.5423 3.15407 84.5823 3.14058C84.6223 3.12708 84.6649 3.12319 84.7067 3.12923H89.4152C91.283 3.12923 92.7444 3.61812 93.7994 4.59589C94.8545 5.57367 95.3755 6.99851 95.3624 8.8704C95.3624 11.0926 94.5731 12.626 92.9945 13.4704C92.8929 13.5331 92.8812 13.5841 92.9632 13.6273C93.7902 14.1171 94.4632 14.8306 94.9053 15.6861C95.3856 16.6602 95.6229 17.7368 95.5969 18.8233C95.5969 20.7109 95.0694 22.1684 94.0144 23.1959ZM87.3716 5.8155V12.3606C87.3689 12.3772 87.3702 12.3942 87.3753 12.4101C87.3805 12.4261 87.3893 12.4407 87.4011 12.4525C87.413 12.4644 87.4274 12.4733 87.4434 12.4785C87.4593 12.4836 87.4762 12.4849 87.4927 12.4822H89.4465C89.862 12.5072 90.2779 12.4416 90.6658 12.2899C91.0536 12.1383 91.4042 11.9042 91.6933 11.6037C92.2528 10.9136 92.5319 10.0367 92.4748 9.14884C92.5353 8.23285 92.257 7.32666 91.6933 6.60374C91.409 6.29501 91.06 6.05331 90.6715 5.89601C90.2831 5.7387 89.8647 5.66969 89.4465 5.69393H87.4927C87.4752 5.68806 87.4564 5.68692 87.4383 5.69064C87.4201 5.69435 87.4033 5.7028 87.3894 5.71511C87.3756 5.72743 87.3652 5.74319 87.3593 5.76082C87.3534 5.77844 87.3523 5.7973 87.356 5.8155H87.3716ZM91.8262 21.1763C92.3706 20.5358 92.6428 19.6299 92.6428 18.4586C92.707 17.4645 92.4313 16.4782 91.8613 15.6626C91.597 15.3318 91.2585 15.0685 90.8735 14.8941C90.4884 14.7196 90.0678 14.6389 89.6458 14.6586H87.4927C87.476 14.6566 87.459 14.6585 87.4432 14.6642C87.4273 14.6699 87.4129 14.6791 87.4012 14.6913C87.3895 14.7034 87.3807 14.7181 87.3756 14.7342C87.3704 14.7503 87.3691 14.7674 87.3716 14.7841V22.0233C87.3691 22.0401 87.3704 22.0571 87.3756 22.0733C87.3807 22.0894 87.3895 22.1041 87.4012 22.1162C87.4129 22.1284 87.4273 22.1376 87.4432 22.1433C87.459 22.1489 87.476 22.1508 87.4927 22.1488H89.6145C90.0322 22.1636 90.4479 22.0839 90.8308 21.9155C91.2136 21.7472 91.5538 21.4945 91.8262 21.1763Z" fill="#201D24"/>
<path d="M100.72 23.3061C99.7037 22.1845 99.1957 20.7074 99.1957 18.8747V3.43939C99.1898 3.39733 99.1938 3.35449 99.2072 3.31423C99.2207 3.27396 99.2433 3.23738 99.2732 3.20736C99.3031 3.17733 99.3395 3.15468 99.3797 3.14118C99.4198 3.12769 99.4625 3.12372 99.5044 3.12959H101.849C101.891 3.12372 101.933 3.12769 101.974 3.14118C102.014 3.15468 102.05 3.17733 102.08 3.20736C102.11 3.23738 102.133 3.27396 102.146 3.31423C102.159 3.35449 102.163 3.39733 102.158 3.43939V19.1845C102.116 20.0296 102.372 20.8623 102.88 21.5374C103.104 21.8253 103.391 22.0565 103.72 22.2124C104.048 22.3684 104.408 22.4448 104.772 22.4355C105.137 22.4439 105.5 22.3664 105.83 22.2091C106.161 22.0518 106.45 21.8191 106.675 21.5296C107.185 20.8554 107.441 20.022 107.398 19.1766V3.43939C107.392 3.39733 107.396 3.35449 107.409 3.31423C107.423 3.27396 107.445 3.23738 107.475 3.20736C107.505 3.17733 107.541 3.15468 107.581 3.14118C107.622 3.12769 107.664 3.12372 107.706 3.12959H110.051C110.093 3.12372 110.135 3.12769 110.175 3.14118C110.216 3.15468 110.252 3.17733 110.282 3.20736C110.312 3.23738 110.334 3.27396 110.348 3.31423C110.361 3.35449 110.365 3.39733 110.359 3.43939V18.8747C110.359 20.7048 109.846 22.1819 108.82 23.3061C107.744 24.3832 106.287 24.9882 104.768 24.9882C103.248 24.9882 101.791 24.3832 100.716 23.3061H100.72Z" fill="#201D24"/>
<path d="M114.947 24.4316V3.43944C114.942 3.39645 114.947 3.35285 114.962 3.31221C114.976 3.27157 115.001 3.23503 115.032 3.20559C115.064 3.17614 115.102 3.15462 115.144 3.14279C115.185 3.13095 115.229 3.12913 115.271 3.13747H117.616C117.658 3.13161 117.7 3.13558 117.74 3.14907C117.78 3.16257 117.817 3.18522 117.847 3.21524C117.877 3.24527 117.899 3.28185 117.913 3.32212C117.926 3.36238 117.93 3.40522 117.924 3.44728V24.4316C117.93 24.4736 117.926 24.5165 117.913 24.5568C117.899 24.597 117.877 24.6336 117.847 24.6636C117.817 24.6937 117.78 24.7163 117.74 24.7298C117.7 24.7433 117.658 24.7473 117.616 24.7414H115.271C115.228 24.7501 115.184 24.7482 115.141 24.736C115.099 24.7237 115.061 24.7015 115.029 24.6711C114.997 24.6407 114.973 24.6031 114.959 24.5614C114.944 24.5197 114.94 24.4752 114.947 24.4316Z" fill="#201D24"/>
<path d="M122.637 24.4315V3.43939C122.631 3.39733 122.635 3.35449 122.648 3.31423C122.662 3.27396 122.684 3.23738 122.714 3.20736C122.744 3.17733 122.781 3.15468 122.821 3.14118C122.861 3.12769 122.904 3.12372 122.945 3.12959H125.29C125.332 3.12372 125.375 3.12769 125.415 3.14118C125.455 3.15468 125.491 3.17733 125.521 3.20736C125.551 3.23738 125.574 3.27396 125.587 3.31423C125.601 3.35449 125.604 3.39733 125.599 3.43939V22.0551C125.596 22.0717 125.597 22.0886 125.602 22.1046C125.607 22.1206 125.616 22.1351 125.628 22.147C125.64 22.1589 125.654 22.1678 125.67 22.1729C125.686 22.1781 125.703 22.1794 125.72 22.1766H132.613C132.655 22.1708 132.697 22.1747 132.737 22.1882C132.777 22.2017 132.814 22.2244 132.844 22.2544C132.874 22.2844 132.896 22.321 132.91 22.3613C132.923 22.4015 132.927 22.4444 132.921 22.4865V24.4472C132.927 24.4893 132.923 24.5321 132.91 24.5724C132.896 24.6127 132.874 24.6492 132.844 24.6793C132.814 24.7093 132.777 24.7319 132.737 24.7454C132.697 24.7589 132.655 24.7629 132.613 24.757H122.945C122.902 24.7636 122.858 24.7595 122.816 24.7452C122.775 24.7309 122.737 24.7067 122.707 24.6748C122.677 24.6429 122.654 24.6041 122.642 24.5618C122.63 24.5194 122.628 24.4748 122.637 24.4315Z" fill="#201D24"/>
<path d="M136.079 24.4312V3.439C136.074 3.399 136.079 3.35859 136.092 3.32061C136.105 3.28262 136.127 3.24801 136.155 3.2192C136.183 3.1904 136.217 3.16811 136.254 3.15391C136.292 3.13971 136.332 3.13395 136.372 3.13704H141.451C143.155 3.13704 144.508 3.65992 145.511 4.70567C146.514 5.75142 147.017 7.17103 147.02 8.96449V18.9057C147.02 20.6965 146.517 22.1174 145.511 23.1684C144.506 24.2194 143.152 24.7423 141.451 24.737H136.372C136.331 24.7402 136.291 24.7344 136.253 24.72C136.215 24.7055 136.181 24.6829 136.153 24.6536C136.125 24.6244 136.104 24.5893 136.091 24.5508C136.078 24.5123 136.074 24.4715 136.079 24.4312ZM139.154 22.1763L141.401 22.1488C141.763 22.1589 142.123 22.0812 142.45 21.9221C142.776 21.7631 143.06 21.5274 143.276 21.2351C143.786 20.5109 144.046 19.639 144.015 18.7527V9.12135C144.063 8.23159 143.814 7.35103 143.307 6.61939C143.088 6.32119 142.8 6.08105 142.468 5.91978C142.136 5.75852 141.769 5.68099 141.401 5.6939H139.154C139.137 5.69203 139.121 5.69388 139.105 5.69932C139.09 5.70477 139.076 5.71367 139.064 5.72535C139.052 5.73704 139.043 5.75121 139.038 5.76682C139.033 5.78242 139.031 5.79905 139.033 5.81547V22.0547C139.031 22.0711 139.033 22.0877 139.038 22.1033C139.043 22.1189 139.052 22.1331 139.064 22.1448C139.076 22.1565 139.09 22.1654 139.105 22.1708C139.121 22.1763 139.137 22.1781 139.154 22.1763Z" fill="#201D24"/>
<path d="M8.45973 9.38019L10.8042 9.2547C10.8461 9.26057 10.8888 9.2566 10.9289 9.24311C10.9691 9.22961 11.0055 9.20696 11.0354 9.17693C11.0653 9.14691 11.0879 9.11032 11.1014 9.07006C11.1148 9.0298 11.1188 8.98696 11.1129 8.9449V8.4547C11.1129 6.76581 10.6049 5.4168 9.58899 4.40764C9.05045 3.89377 8.41376 3.49472 7.71733 3.23456C7.02091 2.9744 6.27919 2.85852 5.53692 2.89392C4.72539 2.88444 3.91979 3.03362 3.16507 3.33314V7.00372H0.160207C0.0569802 7.48053 0.00329068 7.96679 0 8.4547L0 19.4116C0 21.1109 0.507975 22.4639 1.52392 23.4704C2.05366 23.9863 2.6829 24.3881 3.37299 24.6512C4.06309 24.9142 4.79947 25.0328 5.53692 24.9998C6.27919 25.0339 7.0206 24.9159 7.71592 24.6529C8.41124 24.39 9.0459 23.9876 9.58118 23.4704C10.5971 22.4534 11.1051 21.1005 11.1051 19.4116V18.9488C11.1109 18.9068 11.107 18.8639 11.0935 18.8237C11.0801 18.7834 11.0575 18.7468 11.0276 18.7168C10.9977 18.6868 10.9612 18.6641 10.9211 18.6506C10.881 18.6371 10.8383 18.6331 10.7964 18.639L8.45191 18.5174C8.41001 18.5116 8.36732 18.5156 8.3272 18.529C8.28708 18.5425 8.25063 18.5652 8.22071 18.5952C8.19079 18.6252 8.16822 18.6618 8.15478 18.7021C8.14133 18.7424 8.13738 18.7852 8.14322 18.8273V19.6116C8.1844 20.3651 7.9258 21.1042 7.42424 21.6665C7.18286 21.9249 6.88925 22.1285 6.56309 22.2638C6.23692 22.399 5.88573 22.4628 5.53301 22.4508C5.18244 22.4641 4.83316 22.4009 4.50933 22.2655C4.18549 22.1301 3.89482 21.9257 3.65742 21.6665C3.16802 21.104 2.91456 20.3732 2.95016 19.6273V8.2547C2.91435 7.50995 3.1679 6.7803 3.65742 6.21941C3.89482 5.96018 4.18549 5.75579 4.50933 5.62037C4.83316 5.48496 5.18244 5.42174 5.53301 5.4351C5.88573 5.42309 6.23692 5.48686 6.56309 5.62212C6.88925 5.75738 7.18286 5.96103 7.42424 6.21941C7.92344 6.77549 8.18329 7.50711 8.14713 8.2547V9.05863C8.13904 9.10193 8.14145 9.14655 8.15417 9.18873C8.16688 9.2309 8.18953 9.26938 8.22018 9.30092C8.25084 9.33245 8.28861 9.35612 8.33031 9.36992C8.372 9.38372 8.41639 9.38724 8.45973 9.38019Z" fill="#201D24"/>
<path d="M3.16898 0H0V3.35294H3.16898V0Z" fill="#3378F3"/>
</svg>
